<?xml version="1.0" encoding="UTF-8" standalone="no"?>
<!DOCTYPE svg PUBLIC "-//W3C//DTD SVG 1.1//EN" "http://www.w3.org/Graphics/SVG/1.1/DTD/svg11.dtd">
<svg width="100%" height="100%" viewBox="0 0 1314 1314" version="1.1" xmlns="http://www.w3.org/2000/svg" xmlns:xlink="http://www.w3.org/1999/xlink" xml:space="preserve" xmlns:serif="http://www.serif.com/" style="fill-rule:evenodd;clip-rule:evenodd;stroke-linejoin:round;stroke-miterlimit:2;">
    <g transform="matrix(0.1,0,0,-0.1,27.974114,1293.663485)">
        <path d="M7099,12379C6536,12007 6130,11629 5986,11343C5745,10862 6031,10155 6799,9333C6882,9243 6948,9170 6945,9170C6920,9170 6706,9309 6596,9398C6155,9752 5849,10205 5748,10652C5724,10758 5715,11110 5734,11184C5746,11231 5718,11201 5653,11096C5384,10663 5298,10150 5416,9692C5567,9106 5910,8716 6780,8142C7133,7909 7310,7789 7355,7753C7361,7748 7381,7734 7400,7720C7523,7635 7730,7457 7719,7446C7717,7443 7641,7491 7550,7551C7459,7611 7277,7725 7145,7804C6848,7981 6805,8006 6530,8157L6485,8182L6530,8142C6568,8108 6738,7963 6830,7887C7124,7642 7510,7251 7745,6959C8392,6156 8585,5478 8356,4802C8313,4674 8320,4674 8441,4797C9126,5496 9409,6301 9234,7056C9155,7401 8936,7841 8669,8191C8596,8287 8593,8288 8626,8203C8849,7623 8902,7124 8804,6545C8782,6415 8784,6415 8698,6542C8601,6686 8603,6681 8595,6775L8589,6855L8609,6830C8620,6816 8648,6769 8672,6725L8715,6645L8723,6715C8736,6823 8724,7337 8706,7466C8615,8105 8416,8512 7922,9069C7567,9470 7429,9657 7296,9919C7113,10279 7029,10601 6998,11058C6992,11152 6984,11230 6980,11230C6970,11230 6895,11099 6858,11015C6704,10671 6701,10276 6851,9826C6896,9690 6896,9685 6850,9741C6694,9936 6587,10330 6604,10655C6627,11123 6834,11746 7159,12324C7198,12394 7229,12454 7227,12457C7225,12459 7167,12424 7099,12379Z" style="fill:rgb(232,82,10);fill-rule:nonzero;"/>
        <path d="M4948,10112C4491,9649 4317,9321 4319,8930C4322,8258 4644,7589 5331,6830C5649,6478 5751,6360 5737,6360C5724,6360 5559,6493 5387,6644C4644,7292 4232,8075 4230,8842L4229,8985L4198,8925C4050,8639 3967,8121 4010,7750C4089,7066 4375,6642 5260,5900C5632,5588 5762,5466 5861,5335C5909,5271 5980,5158 5980,5144C5980,5140 5925,5190 5858,5256C5707,5404 5658,5445 5505,5552C5373,5644 5161,5775 5154,5768C5152,5765 5214,5682 5292,5584C5992,4704 6119,3960 5710,3129C5682,3073 5662,3025 5664,3023C5672,3015 5995,3345 6179,3550C7060,4527 7598,5568 7486,6074C7428,6334 7177,6677 6781,7038C6652,7155 6625,7175 6635,7148C6677,7027 6752,6623 6771,6416C6791,6200 6768,5748 6746,5905C6661,6490 6417,6921 5845,7496C5531,7813 5414,7941 5302,8091C5012,8483 4879,8867 4880,9312C4881,9566 4924,9799 5028,10105C5051,10170 5068,10225 5066,10227C5065,10229 5011,10177 4948,10112Z" style="fill:rgb(232,82,10);fill-rule:nonzero;"/>
        <path d="M8505,8970C8510,8962 8570,8867 8638,8760C8936,8294 9089,8017 9325,7523L9435,7291L9560,7163C9691,7029 10011,6696 10337,6355C10442,6245 10539,6144 10553,6132L10578,6108L10802,6226C11344,6512 11283,6472 11240,6511C11047,6685 10926,6794 10876,6841C10842,6872 10678,7020 10510,7170C10157,7487 9967,7658 9421,8154C8595,8903 8490,8996 8505,8970Z" style="fill:rgb(232,82,10);fill-rule:nonzero;"/>
        <path d="M3685,8638C3553,8516 3252,8238 3015,8020C2494,7539 2543,7584 2065,7145C1851,6948 1599,6717 1507,6632C1414,6547 1342,6474 1347,6470C1356,6461 1422,6426 1685,6290C1784,6239 1903,6177 1948,6153C2051,6100 2048,6100 2101,6158C2162,6225 2908,6987 3272,7355L3580,7665L3580,7735C3581,8076 3680,8403 3901,8793C3922,8830 3936,8860 3932,8859C3928,8859 3817,8759 3685,8638Z" style="fill:rgb(232,82,10);fill-rule:nonzero;"/>
        <path d="M1306,6334C1298,6313 1298,5202 1307,5171C1314,5144 1268,5144 1763,5171L1980,5183L1980,6005L1903,6046C1507,6255 1312,6349 1306,6334Z" style="fill:rgb(232,82,10);fill-rule:nonzero;"/>
        <path d="M11105,6259C11012,6209 10870,6134 10790,6093C10710,6051 10639,6013 10632,6007C10623,6000 10620,5910 10622,5596L10625,5195L10760,5188C10834,5184 10979,5176 11082,5170C11185,5164 11274,5161 11280,5165C11292,5172 11295,6350 11283,6350C11278,6350 11199,6309 11105,6259Z" style="fill:rgb(232,82,10);fill-rule:nonzero;"/>
        <path d="M2112,5563L2115,5177L2255,5087C2332,5037 2465,4952 2550,4897C2635,4842 2737,4777 2775,4753C2814,4729 2955,4637 3090,4549C3225,4461 3416,4337 3515,4273C3849,4057 4024,3944 4167,3852C4245,3801 4311,3760 4314,3760C4317,3760 4017,4060 3648,4427C3279,4795 2783,5287 2547,5523C2310,5758 2115,5950 2113,5950C2111,5950 2111,5776 2112,5563Z" style="fill:rgb(232,82,10);fill-rule:nonzero;"/>
        <path d="M10492,5941C10485,5937 10318,5774 10122,5579C9925,5384 9585,5047 9365,4830C8256,3735 8285,3764 8323,3786C8329,3790 8439,3861 8565,3944C8692,4026 8890,4154 9005,4228C9121,4302 9238,4377 9265,4395C9293,4413 9378,4467 9455,4515C9532,4564 9694,4666 9815,4743C10068,4905 10226,5005 10392,5111L10510,5185L10510,5568C10510,5778 10509,5950 10508,5950C10506,5950 10499,5946 10492,5941Z" style="fill:rgb(232,82,10);fill-rule:nonzero;"/>
        <path d="M7578,5825C7575,5819 7569,5788 7566,5755C7491,5096 7003,4273 6206,3463C6107,3362 6030,3280 6034,3280C6038,3280 6051,3286 6063,3294C6599,3625 6854,3814 7111,4071C7498,4459 7679,4896 7657,5388C7650,5558 7596,5855 7578,5825Z" style="fill:rgb(232,82,10);fill-rule:nonzero;"/>
        <path d="M10510,5053C10446,5010 10120,4803 9775,4585C9643,4502 9501,4413 9460,4387C9419,4360 9313,4294 9225,4238C8976,4081 8552,3812 8480,3765C8444,3742 8318,3662 8200,3587C8022,3474 7961,3429 7845,3324C7768,3254 7664,3160 7615,3116C7565,3071 7434,2954 7324,2855C6615,2217 6323,1960 6307,1960C6294,1960 5839,2348 5505,2644C5275,2847 4788,3276 4675,3375C4624,3419 4548,3477 4504,3505C4461,3532 4331,3615 4215,3689C4100,3763 3958,3853 3900,3890C3842,3927 3723,4003 3635,4060C3547,4116 3455,4175 3430,4191C3405,4207 3277,4289 3145,4374C2846,4567 2815,4586 2545,4757C2424,4834 2265,4936 2191,4984L2057,5071L1731,5054C1552,5044 1404,5036 1402,5035C1400,5033 1572,4864 1800,4645C1880,4568 2017,4435 2105,4350C2255,4204 2612,3861 2885,3601C2951,3537 3075,3418 3160,3335C3245,3252 3376,3126 3450,3055C3524,2984 3644,2869 3715,2799C3787,2729 3859,2660 3875,2645C3967,2562 5342,1229 5655,919C6142,438 6310,275 6321,275C6325,275 6490,435 6687,630C7118,1057 7585,1519 8420,2340C8764,2678 9176,3083 9335,3240C9495,3397 9713,3611 9820,3715C10333,4215 10756,4626 10968,4830L11201,5055L11038,5066C10948,5072 10805,5080 10720,5083L10565,5089L10510,5053Z" style="fill:rgb(232,82,10);fill-rule:nonzero;"/>
    </g>
</svg>
